<svg width="24" height="24" xmlns="http://www.w3.org/2000/svg">
 <g>
  <title>Layer 1</title>
  <path fill="none" d="m0,0l24,0l0,24l-24,0l0,-24z" id="svg_1"/>
  <path fill="#0ad69c" d="m12,22c-5.523,0 -10,-4.477 -10,-10s4.477,-10 10,-10s10,4.477 10,10s-4.477,10 -10,10zm-4.987,-3.744a7.966,7.966 0 0 0 4.987,1.744c1.97,0 3.773,-0.712 5.167,-1.892a6.979,6.979 0 0 0 -5.007,-2.108a6.981,6.981 0 0 0 -5.147,2.256zm-1.397,-1.436a8.975,8.975 0 0 1 6.544,-2.82a8.972,8.972 0 0 1 6.362,2.634a8,8 0 1 0 -12.906,0.187l0,-0.001zm6.384,-3.82a4,4 0 1 1 0,-8a4,4 0 0 1 0,8zm0,-2a2,2 0 1 0 0,-4a2,2 0 0 0 0,4z" id="svg_2"/>
 </g>

</svg>